# xmcd
#
# Track frame offsets:
#	150
#	65000
#	89511
#	132485
#
# Disc length: 2070 seconds
#
# Revision: 1
# Processed by: cddbd v1.5.2PL0 Copyright (c) Steve Scherf et al.
# Submitted via: audiograbber 1.83.01
#
DISCID=38081404
DTITLE=Grateful Dead - 94-10-11 USAir Arena, Landover MD
DYEAR=1900
DGENRE=
TTITLE0=Space
TTITLE1=China Doll
TTITLE2=Sugar Magnolia
TTITLE3=Lucy In The Sky With Diamonds
EXTD=
EXTT0=
EXTT1=
EXTT2=
EXTT3=
PLAYORDER=
